<?xml version="1.0" encoding="UTF-8" standalone="no"?>
<svg xmlns="http://www.w3.org/2000/svg" xmlns:xlink="http://www.w3.org/1999/xlink" contentScriptType="application/ecmascript" contentStyleType="text/css" height="1066px" preserveAspectRatio="none" style="width:681px;height:1066px;" version="1.1" viewBox="0 0 681 1066" width="681px" zoomAndPan="magnify">
  <defs>
    <filter height="300%" id="f1mgc2gd4r8np5" width="300%" x="-1" y="-1">
      <feGaussianBlur result="blurOut" stdDeviation="2.0"/>
      <feColorMatrix in="blurOut" result="blurOut2" type="matrix" values="0 0 0 0 0 0 0 0 0 0 0 0 0 0 0 0 0 0 .4 0"/>
      <feOffset dx="4.0" dy="4.0" in="blurOut2" result="blurOut3"/>
      <feBlend in="SourceGraphic" in2="blurOut3" mode="normal"/>
    </filter>
  </defs>
  <g>
    <line style="stroke: #A80036; stroke-width: 1.0; stroke-dasharray: 5.0,5.0;" x1="57" x2="57" y1="79.9375" y2="978.7188"/>
    <line style="stroke: #A80036; stroke-width: 1.0; stroke-dasharray: 5.0,5.0;" x1="193" x2="193" y1="79.9375" y2="978.7188"/>
    <line style="stroke: #A80036; stroke-width: 1.0; stroke-dasharray: 5.0,5.0;" x1="345" x2="345" y1="79.9375" y2="978.7188"/>
    <line style="stroke: #A80036; stroke-width: 1.0; stroke-dasharray: 5.0,5.0;" x1="451" x2="451" y1="79.9375" y2="978.7188"/>
    <line style="stroke: #A80036; stroke-width: 1.0; stroke-dasharray: 5.0,5.0;" x1="611" x2="611" y1="79.9375" y2="978.7188"/>
    <text fill="#000000" font-family="sans-serif" font-size="14" lengthAdjust="spacingAndGlyphs" textLength="92" x="8" y="76.6357">AWS RDS DB</text>
    <path d="M39,27.6406 C39,17.6406 57,17.6406 57,17.6406 C57,17.6406 75,17.6406 75,27.6406 L75,53.6406 C75,63.6406 57,63.6406 57,63.6406 C57,63.6406 39,63.6406 39,53.6406 L39,27.6406 " fill="#FEFECE" filter="url(#f1mgc2gd4r8np5)" style="stroke: #000000; stroke-width: 1.5;"/>
    <path d="M39,27.6406 C39,37.6406 57,37.6406 57,37.6406 C57,37.6406 75,37.6406 75,27.6406 " fill="none" style="stroke: #000000; stroke-width: 1.5;"/>
    <text fill="#000000" font-family="sans-serif" font-size="14" lengthAdjust="spacingAndGlyphs" textLength="92" x="8" y="990.7139">AWS RDS DB</text>
    <path d="M39,1004.0156 C39,994.0156 57,994.0156 57,994.0156 C57,994.0156 75,994.0156 75,1004.0156 L75,1030.0156 C75,1040.0156 57,1040.0156 57,1040.0156 C57,1040.0156 39,1040.0156 39,1030.0156 L39,1004.0156 " fill="#FEFECE" filter="url(#f1mgc2gd4r8np5)" style="stroke: #000000; stroke-width: 1.5;"/>
    <path d="M39,1004.0156 C39,1014.0156 57,1014.0156 57,1014.0156 C57,1014.0156 75,1014.0156 75,1004.0156 " fill="none" style="stroke: #000000; stroke-width: 1.5;"/>
    <rect fill="#A0A0FF" filter="url(#f1mgc2gd4r8np5)" height="46.5938" style="stroke: #A80036; stroke-width: 1.5;" width="150" x="116" y="28.3438"/>
    <text fill="#000000" font-family="sans-serif" font-size="14" lengthAdjust="spacingAndGlyphs" textLength="54" x="164" y="48.3389">Insights</text>
    <text fill="#000000" font-family="sans-serif" font-size="14" lengthAdjust="spacingAndGlyphs" textLength="136" x="123" y="64.6357">Results Aggregator</text>
    <rect fill="#A0A0FF" filter="url(#f1mgc2gd4r8np5)" height="46.5938" style="stroke: #A80036; stroke-width: 1.5;" width="150" x="116" y="977.7188"/>
    <text fill="#000000" font-family="sans-serif" font-size="14" lengthAdjust="spacingAndGlyphs" textLength="54" x="164" y="997.7139">Insights</text>
    <text fill="#000000" font-family="sans-serif" font-size="14" lengthAdjust="spacingAndGlyphs" textLength="136" x="123" y="1014.0107">Results Aggregator</text>
    <rect fill="#A0A0FF" filter="url(#f1mgc2gd4r8np5)" height="46.5938" style="stroke: #A80036; stroke-width: 1.5;" width="127" x="280" y="28.3438"/>
    <text fill="#000000" font-family="sans-serif" font-size="14" lengthAdjust="spacingAndGlyphs" textLength="54" x="316.5" y="48.3389">Insights</text>
    <text fill="#000000" font-family="sans-serif" font-size="14" lengthAdjust="spacingAndGlyphs" textLength="113" x="287" y="64.6357">Content Service</text>
    <rect fill="#A0A0FF" filter="url(#f1mgc2gd4r8np5)" height="46.5938" style="stroke: #A80036; stroke-width: 1.5;" width="127" x="280" y="977.7188"/>
    <text fill="#000000" font-family="sans-serif" font-size="14" lengthAdjust="spacingAndGlyphs" textLength="54" x="316.5" y="997.7139">Insights</text>
    <text fill="#000000" font-family="sans-serif" font-size="14" lengthAdjust="spacingAndGlyphs" textLength="113" x="287" y="1014.0107">Content Service</text>
    <rect fill="#A0A0FF" filter="url(#f1mgc2gd4r8np5)" height="46.5938" style="stroke: #A80036; stroke-width: 1.5;" width="57" x="421" y="28.3438"/>
    <text fill="#000000" font-family="sans-serif" font-size="14" lengthAdjust="spacingAndGlyphs" textLength="43" x="428" y="48.3389">Smart</text>
    <text fill="#000000" font-family="sans-serif" font-size="14" lengthAdjust="spacingAndGlyphs" textLength="39" x="430" y="64.6357">Proxy</text>
    <rect fill="#A0A0FF" filter="url(#f1mgc2gd4r8np5)" height="46.5938" style="stroke: #A80036; stroke-width: 1.5;" width="57" x="421" y="977.7188"/>
    <text fill="#000000" font-family="sans-serif" font-size="14" lengthAdjust="spacingAndGlyphs" textLength="43" x="428" y="997.7139">Smart</text>
    <text fill="#000000" font-family="sans-serif" font-size="14" lengthAdjust="spacingAndGlyphs" textLength="39" x="430" y="1014.0107">Proxy</text>
    <rect fill="#A0FFA0" filter="url(#f1mgc2gd4r8np5)" height="46.5938" style="stroke: #A80036; stroke-width: 1.5;" width="97" x="563" y="24.3438"/>
    <rect fill="#A0FFA0" filter="url(#f1mgc2gd4r8np5)" height="46.5938" style="stroke: #A80036; stroke-width: 1.5;" width="97" x="559" y="28.3438"/>
    <text fill="#000000" font-family="sans-serif" font-size="14" lengthAdjust="spacingAndGlyphs" textLength="32" x="591.5" y="48.3389">ACM</text>
    <text fill="#000000" font-family="sans-serif" font-size="14" lengthAdjust="spacingAndGlyphs" textLength="83" x="566" y="64.6357">Hub Cluster</text>
    <rect fill="#A0FFA0" filter="url(#f1mgc2gd4r8np5)" height="46.5938" style="stroke: #A80036; stroke-width: 1.5;" width="97" x="563" y="977.7188"/>
    <rect fill="#A0FFA0" filter="url(#f1mgc2gd4r8np5)" height="46.5938" style="stroke: #A80036; stroke-width: 1.5;" width="97" x="559" y="981.7188"/>
    <text fill="#000000" font-family="sans-serif" font-size="14" lengthAdjust="spacingAndGlyphs" textLength="32" x="591.5" y="1001.7139">ACM</text>
    <text fill="#000000" font-family="sans-serif" font-size="14" lengthAdjust="spacingAndGlyphs" textLength="83" x="566" y="1018.0107">Hub Cluster</text>
    <rect fill="#EEEEEE" filter="url(#f1mgc2gd4r8np5)" height="3" style="stroke: #EEEEEE; stroke-width: 1.0;" width="666" x="3" y="110.5039"/>
    <line style="stroke: #000000; stroke-width: 1.0;" x1="3" x2="669" y1="110.5039" y2="110.5039"/>
    <line style="stroke: #000000; stroke-width: 1.0;" x1="3" x2="669" y1="113.5039" y2="113.5039"/>
    <rect fill="#EEEEEE" filter="url(#f1mgc2gd4r8np5)" height="23.1328" style="stroke: #000000; stroke-width: 2.0;" width="330" x="171" y="99.9375"/>
    <text fill="#000000" font-family="sans-serif" font-size="13" font-weight="bold" lengthAdjust="spacingAndGlyphs" textLength="311" x="177" y="116.0044">Providing recommendations for cluster #1</text>
    <polygon fill="#A80036" points="462.5,180.4688,452.5,184.4688,462.5,188.4688,458.5,184.4688" style="stroke: #A80036; stroke-width: 1.0;"/>
    <line style="stroke: #A80036; stroke-width: 1.0;" x1="456.5" x2="610.5" y1="184.4688" y2="184.4688"/>
    <text fill="#000000" font-family="sans-serif" font-size="13" font-weight="bold" lengthAdjust="spacingAndGlyphs" textLength="26" x="468.5" y="149.1372">Get</text>
    <text fill="#000000" font-family="sans-serif" font-size="13" font-weight="bold" lengthAdjust="spacingAndGlyphs" textLength="132" x="468.5" y="164.27">recommendations</text>
    <text fill="#000000" font-family="sans-serif" font-size="13" font-weight="bold" lengthAdjust="spacingAndGlyphs" textLength="101" x="468.5" y="179.4028">for cluster #1</text>
    <polygon fill="#808080" points="204,209.6016,194,213.6016,204,217.6016,200,213.6016" style="stroke: #808080; stroke-width: 1.0;"/>
    <line style="stroke: #808080; stroke-width: 1.0;" x1="198" x2="450.5" y1="213.6016" y2="213.6016"/>
    <text fill="#000000" font-family="sans-serif" font-size="13" lengthAdjust="spacingAndGlyphs" textLength="195" x="210" y="208.5356">Get OCP results for cluster #1</text>
    <polygon fill="#808080" points="68,253.8672,58,257.8672,68,261.8672,64,257.8672" style="stroke: #808080; stroke-width: 1.0;"/>
    <line style="stroke: #808080; stroke-width: 1.0;" x1="62" x2="192" y1="257.8672" y2="257.8672"/>
    <text fill="#000000" font-family="sans-serif" font-size="13" lengthAdjust="spacingAndGlyphs" textLength="112" x="74" y="237.6685">Read OCP results</text>
    <text fill="#000000" font-family="sans-serif" font-size="13" lengthAdjust="spacingAndGlyphs" textLength="67" x="74" y="252.8013">cluster #1</text>
    <polygon fill="#808080" points="181,283,191,287,181,291,185,287" style="stroke: #808080; stroke-width: 1.0;"/>
    <line style="stroke: #808080; stroke-width: 1.0;" x1="57" x2="187" y1="287" y2="287"/>
    <text fill="#000000" font-family="sans-serif" font-size="13" lengthAdjust="spacingAndGlyphs" textLength="104" x="64" y="281.9341">Here are results</text>
    <polygon fill="#808080" points="439.5,312.1328,449.5,316.1328,439.5,320.1328,443.5,316.1328" style="stroke: #808080; stroke-width: 1.0;"/>
    <line style="stroke: #808080; stroke-width: 1.0;" x1="193" x2="445.5" y1="316.1328" y2="316.1328"/>
    <text fill="#000000" font-family="sans-serif" font-size="13" lengthAdjust="spacingAndGlyphs" textLength="104" x="200" y="311.0669">Here are results</text>
    <polygon fill="#808080" points="356.5,356.3984,346.5,360.3984,356.5,364.3984,352.5,360.3984" style="stroke: #808080; stroke-width: 1.0;"/>
    <line style="stroke: #808080; stroke-width: 1.0;" x1="350.5" x2="450.5" y1="360.3984" y2="360.3984"/>
    <text fill="#000000" font-family="sans-serif" font-size="13" lengthAdjust="spacingAndGlyphs" textLength="76" x="362.5" y="340.1997">Get content</text>
    <text fill="#000000" font-family="sans-serif" font-size="13" lengthAdjust="spacingAndGlyphs" textLength="65" x="362.5" y="355.3325">for rule ID</text>
    <polygon fill="#808080" points="439.5,415.7969,449.5,419.7969,439.5,423.7969,443.5,419.7969" style="stroke: #808080; stroke-width: 1.0;"/>
    <line style="stroke: #808080; stroke-width: 1.0;" x1="345.5" x2="445.5" y1="419.7969" y2="419.7969"/>
    <text fill="#000000" font-family="sans-serif" font-size="13" lengthAdjust="spacingAndGlyphs" textLength="42" x="352.5" y="384.4653">Here's</text>
    <text fill="#000000" font-family="sans-serif" font-size="13" lengthAdjust="spacingAndGlyphs" textLength="54" x="352.5" y="399.5981">required</text>
    <text fill="#000000" font-family="sans-serif" font-size="13" lengthAdjust="spacingAndGlyphs" textLength="49" x="352.5" y="414.731">content</text>
    <line style="stroke: #808080; stroke-width: 1.0;" x1="451.5" x2="493.5" y1="464.0625" y2="464.0625"/>
    <line style="stroke: #808080; stroke-width: 1.0;" x1="493.5" x2="493.5" y1="464.0625" y2="477.0625"/>
    <line style="stroke: #808080; stroke-width: 1.0;" x1="452.5" x2="493.5" y1="477.0625" y2="477.0625"/>
    <polygon fill="#808080" points="462.5,473.0625,452.5,477.0625,462.5,481.0625,458.5,477.0625" style="stroke: #808080; stroke-width: 1.0;"/>
    <text fill="#000000" font-family="sans-serif" font-size="13" lengthAdjust="spacingAndGlyphs" textLength="88" x="458.5" y="443.8638">Merge results</text>
    <text fill="#000000" font-family="sans-serif" font-size="13" lengthAdjust="spacingAndGlyphs" textLength="81" x="458.5" y="458.9966">with content</text>
    <polygon fill="#A80036" points="599.5,517.3281,609.5,521.3281,599.5,525.3281,603.5,521.3281" style="stroke: #A80036; stroke-width: 1.0;"/>
    <line style="stroke: #A80036; stroke-width: 1.0;" x1="451.5" x2="605.5" y1="521.3281" y2="521.3281"/>
    <text fill="#000000" font-family="sans-serif" font-size="13" font-weight="bold" lengthAdjust="spacingAndGlyphs" textLength="136" x="458.5" y="501.1294">Recommendations</text>
    <text fill="#000000" font-family="sans-serif" font-size="13" font-weight="bold" lengthAdjust="spacingAndGlyphs" textLength="76" x="458.5" y="516.2622">for cluster</text>
    <rect fill="#EEEEEE" filter="url(#f1mgc2gd4r8np5)" height="3" style="stroke: #EEEEEE; stroke-width: 1.0;" width="666" x="3" y="549.8945"/>
    <line style="stroke: #000000; stroke-width: 1.0;" x1="3" x2="669" y1="549.8945" y2="549.8945"/>
    <line style="stroke: #000000; stroke-width: 1.0;" x1="3" x2="669" y1="552.8945" y2="552.8945"/>
    <rect fill="#EEEEEE" filter="url(#f1mgc2gd4r8np5)" height="23.1328" style="stroke: #000000; stroke-width: 2.0;" width="330" x="171" y="539.3281"/>
    <text fill="#000000" font-family="sans-serif" font-size="13" font-weight="bold" lengthAdjust="spacingAndGlyphs" textLength="311" x="177" y="555.395">Providing recommendations for cluster #2</text>
    <polygon fill="#A80036" points="462.5,619.8594,452.5,623.8594,462.5,627.8594,458.5,623.8594" style="stroke: #A80036; stroke-width: 1.0;"/>
    <line style="stroke: #A80036; stroke-width: 1.0;" x1="456.5" x2="610.5" y1="623.8594" y2="623.8594"/>
    <text fill="#000000" font-family="sans-serif" font-size="13" font-weight="bold" lengthAdjust="spacingAndGlyphs" textLength="26" x="468.5" y="588.5278">Get</text>
    <text fill="#000000" font-family="sans-serif" font-size="13" font-weight="bold" lengthAdjust="spacingAndGlyphs" textLength="132" x="468.5" y="603.6606">recommendations</text>
    <text fill="#000000" font-family="sans-serif" font-size="13" font-weight="bold" lengthAdjust="spacingAndGlyphs" textLength="101" x="468.5" y="618.7935">for cluster #2</text>
    <polygon fill="#808080" points="204,648.9922,194,652.9922,204,656.9922,200,652.9922" style="stroke: #808080; stroke-width: 1.0;"/>
    <line style="stroke: #808080; stroke-width: 1.0;" x1="198" x2="450.5" y1="652.9922" y2="652.9922"/>
    <text fill="#000000" font-family="sans-serif" font-size="13" lengthAdjust="spacingAndGlyphs" textLength="195" x="210" y="647.9263">Get OCP results for cluster #2</text>
    <polygon fill="#808080" points="68,693.2578,58,697.2578,68,701.2578,64,697.2578" style="stroke: #808080; stroke-width: 1.0;"/>
    <line style="stroke: #808080; stroke-width: 1.0;" x1="62" x2="192" y1="697.2578" y2="697.2578"/>
    <text fill="#000000" font-family="sans-serif" font-size="13" lengthAdjust="spacingAndGlyphs" textLength="112" x="74" y="677.0591">Read OCP results</text>
    <text fill="#000000" font-family="sans-serif" font-size="13" lengthAdjust="spacingAndGlyphs" textLength="67" x="74" y="692.1919">cluster #2</text>
    <polygon fill="#808080" points="181,722.3906,191,726.3906,181,730.3906,185,726.3906" style="stroke: #808080; stroke-width: 1.0;"/>
    <line style="stroke: #808080; stroke-width: 1.0;" x1="57" x2="187" y1="726.3906" y2="726.3906"/>
    <text fill="#000000" font-family="sans-serif" font-size="13" lengthAdjust="spacingAndGlyphs" textLength="104" x="64" y="721.3247">Here are results</text>
    <polygon fill="#808080" points="439.5,751.5234,449.5,755.5234,439.5,759.5234,443.5,755.5234" style="stroke: #808080; stroke-width: 1.0;"/>
    <line style="stroke: #808080; stroke-width: 1.0;" x1="193" x2="445.5" y1="755.5234" y2="755.5234"/>
    <text fill="#000000" font-family="sans-serif" font-size="13" lengthAdjust="spacingAndGlyphs" textLength="104" x="200" y="750.4575">Here are results</text>
    <polygon fill="#808080" points="356.5,795.7891,346.5,799.7891,356.5,803.7891,352.5,799.7891" style="stroke: #808080; stroke-width: 1.0;"/>
    <line style="stroke: #808080; stroke-width: 1.0;" x1="350.5" x2="450.5" y1="799.7891" y2="799.7891"/>
    <text fill="#000000" font-family="sans-serif" font-size="13" lengthAdjust="spacingAndGlyphs" textLength="76" x="362.5" y="779.5903">Get content</text>
    <text fill="#000000" font-family="sans-serif" font-size="13" lengthAdjust="spacingAndGlyphs" textLength="65" x="362.5" y="794.7231">for rule ID</text>
    <polygon fill="#808080" points="439.5,855.1875,449.5,859.1875,439.5,863.1875,443.5,859.1875" style="stroke: #808080; stroke-width: 1.0;"/>
    <line style="stroke: #808080; stroke-width: 1.0;" x1="345.5" x2="445.5" y1="859.1875" y2="859.1875"/>
    <text fill="#000000" font-family="sans-serif" font-size="13" lengthAdjust="spacingAndGlyphs" textLength="42" x="352.5" y="823.856">Here's</text>
    <text fill="#000000" font-family="sans-serif" font-size="13" lengthAdjust="spacingAndGlyphs" textLength="54" x="352.5" y="838.9888">required</text>
    <text fill="#000000" font-family="sans-serif" font-size="13" lengthAdjust="spacingAndGlyphs" textLength="49" x="352.5" y="854.1216">content</text>
    <line style="stroke: #808080; stroke-width: 1.0;" x1="451.5" x2="493.5" y1="903.4531" y2="903.4531"/>
    <line style="stroke: #808080; stroke-width: 1.0;" x1="493.5" x2="493.5" y1="903.4531" y2="916.4531"/>
    <line style="stroke: #808080; stroke-width: 1.0;" x1="452.5" x2="493.5" y1="916.4531" y2="916.4531"/>
    <polygon fill="#808080" points="462.5,912.4531,452.5,916.4531,462.5,920.4531,458.5,916.4531" style="stroke: #808080; stroke-width: 1.0;"/>
    <text fill="#000000" font-family="sans-serif" font-size="13" lengthAdjust="spacingAndGlyphs" textLength="88" x="458.5" y="883.2544">Merge results</text>
    <text fill="#000000" font-family="sans-serif" font-size="13" lengthAdjust="spacingAndGlyphs" textLength="81" x="458.5" y="898.3872">with content</text>
    <polygon fill="#A80036" points="599.5,956.7188,609.5,960.7188,599.5,964.7188,603.5,960.7188" style="stroke: #A80036; stroke-width: 1.0;"/>
    <line style="stroke: #A80036; stroke-width: 1.0;" x1="451.5" x2="605.5" y1="960.7188" y2="960.7188"/>
    <text fill="#000000" font-family="sans-serif" font-size="13" font-weight="bold" lengthAdjust="spacingAndGlyphs" textLength="136" x="458.5" y="940.52">Recommendations</text>
    <text fill="#000000" font-family="sans-serif" font-size="13" font-weight="bold" lengthAdjust="spacingAndGlyphs" textLength="76" x="458.5" y="955.6528">for cluster</text>
    <text fill="#888888" font-family="sans-serif" font-size="10" lengthAdjust="spacingAndGlyphs" textLength="407" x="262" y="12.2822">Sequence diagram: CCX (external) data pipeline integration with ACM - pull model</text>
    <text fill="#888888" font-family="sans-serif" font-size="10" lengthAdjust="spacingAndGlyphs" textLength="276" x="198" y="1053.2979">Copyright © 2020 Red Hat, Inc. Author: Pavel Tisnovsky</text>
    <!--MD5=[044afbf4ba998e90befe7fd418b4e8e3]
@startuml

header Sequence diagram: CCX (external) data pipeline integration with ACM - pull model
footer Copyright © 2020 Red Hat, Inc. Author: Pavel Tisnovsky

database "AWS RDS DB" as storage
participant "Insights\nResults Aggregator" as aggregator #a0a0ff
participant "Insights\nContent Service" as content_service #a0a0ff
participant "Smart\nProxy" as smart_proxy #a0a0ff
collections "ACM\nHub Cluster" as acm #a0ffa0

== Providing recommendations for cluster #1 ==
acm -> smart_proxy: <b>Get</b>\n<b>recommendations</b>\n<b>for cluster #1</b>
smart_proxy -[#808080]> aggregator: Get OCP results for cluster #1
aggregator -[#808080]> storage: Read OCP results\ncluster #1
storage -[#808080]> aggregator: Here are results
aggregator -[#808080]> smart_proxy: Here are results
smart_proxy -[#808080]> content_service: Get content\nfor rule ID
content_service -[#808080]> smart_proxy: Here's\nrequired\ncontent
smart_proxy -[#808080]> smart_proxy: Merge results\nwith content
smart_proxy -> acm: <b>Recommendations</b>\n<b>for cluster</b>

== Providing recommendations for cluster #2 ==

acm -> smart_proxy: <b>Get</b>\n<b>recommendations</b>\n<b>for cluster #2</b>
smart_proxy -[#808080]> aggregator: Get OCP results for cluster #2
aggregator -[#808080]> storage: Read OCP results\ncluster #2
storage -[#808080]> aggregator: Here are results
aggregator -[#808080]> smart_proxy: Here are results
smart_proxy -[#808080]> content_service: Get content\nfor rule ID
content_service -[#808080]> smart_proxy: Here's\nrequired\ncontent
smart_proxy -[#808080]> smart_proxy: Merge results\nwith content
smart_proxy -> acm: <b>Recommendations</b>\n<b>for cluster</b>

@enduml

PlantUML version 1.2019.12(Sun Nov 03 11:24:54 CET 2019)
(GPL source distribution)
Java Runtime: OpenJDK Runtime Environment
JVM: OpenJDK 64-Bit Server VM
Java Version: 1.8.0_191-b12
Operating System: Linux
Default Encoding: UTF-8
Language: en
Country: US
-->
  </g>
</svg>
