<?xml version="1.0" encoding="UTF-8" standalone="no"?>
<svg xmlns="http://www.w3.org/2000/svg" xmlns:xlink="http://www.w3.org/1999/xlink" contentScriptType="application/ecmascript" contentStyleType="text/css" height="1078px" preserveAspectRatio="none" style="width:681px;height:1078px;" version="1.1" viewBox="0 0 681 1078" width="681px" zoomAndPan="magnify">
  <defs>
    <filter height="300%" id="f16s7xfmsh0y3p" width="300%" x="-1" y="-1">
      <feGaussianBlur result="blurOut" stdDeviation="2.0"/>
      <feColorMatrix in="blurOut" result="blurOut2" type="matrix" values="0 0 0 0 0 0 0 0 0 0 0 0 0 0 0 0 0 0 .4 0"/>
      <feOffset dx="4.0" dy="4.0" in="blurOut2" result="blurOut3"/>
      <feBlend in="SourceGraphic" in2="blurOut3" mode="normal"/>
    </filter>
  </defs>
  <g>
    <line style="stroke: #A80036; stroke-width: 1.0; stroke-dasharray: 5.0,5.0;" x1="57" x2="57" y1="79.9375" y2="990.4531"/>
    <line style="stroke: #A80036; stroke-width: 1.0; stroke-dasharray: 5.0,5.0;" x1="193" x2="193" y1="79.9375" y2="990.4531"/>
    <line style="stroke: #A80036; stroke-width: 1.0; stroke-dasharray: 5.0,5.0;" x1="345" x2="345" y1="79.9375" y2="990.4531"/>
    <line style="stroke: #A80036; stroke-width: 1.0; stroke-dasharray: 5.0,5.0;" x1="451" x2="451" y1="79.9375" y2="990.4531"/>
    <line style="stroke: #A80036; stroke-width: 1.0; stroke-dasharray: 5.0,5.0;" x1="611" x2="611" y1="79.9375" y2="990.4531"/>
    <text fill="#000000" font-family="sans-serif" font-size="14" lengthAdjust="spacingAndGlyphs" textLength="92" x="8" y="76.6357">AWS RDS DB</text>
    <path d="M39,27.6406 C39,17.6406 57,17.6406 57,17.6406 C57,17.6406 75,17.6406 75,27.6406 L75,53.6406 C75,63.6406 57,63.6406 57,63.6406 C57,63.6406 39,63.6406 39,53.6406 L39,27.6406 " fill="#FEFECE" filter="url(#f16s7xfmsh0y3p)" style="stroke: #000000; stroke-width: 1.5;"/>
    <path d="M39,27.6406 C39,37.6406 57,37.6406 57,37.6406 C57,37.6406 75,37.6406 75,27.6406 " fill="none" style="stroke: #000000; stroke-width: 1.5;"/>
    <text fill="#000000" font-family="sans-serif" font-size="14" lengthAdjust="spacingAndGlyphs" textLength="92" x="8" y="1002.4482">AWS RDS DB</text>
    <path d="M39,1015.75 C39,1005.75 57,1005.75 57,1005.75 C57,1005.75 75,1005.75 75,1015.75 L75,1041.75 C75,1051.75 57,1051.75 57,1051.75 C57,1051.75 39,1051.75 39,1041.75 L39,1015.75 " fill="#FEFECE" filter="url(#f16s7xfmsh0y3p)" style="stroke: #000000; stroke-width: 1.5;"/>
    <path d="M39,1015.75 C39,1025.75 57,1025.75 57,1025.75 C57,1025.75 75,1025.75 75,1015.75 " fill="none" style="stroke: #000000; stroke-width: 1.5;"/>
    <rect fill="#A0A0FF" filter="url(#f16s7xfmsh0y3p)" height="46.5938" style="stroke: #A80036; stroke-width: 1.5;" width="150" x="116" y="28.3438"/>
    <text fill="#000000" font-family="sans-serif" font-size="14" lengthAdjust="spacingAndGlyphs" textLength="54" x="164" y="48.3389">Insights</text>
    <text fill="#000000" font-family="sans-serif" font-size="14" lengthAdjust="spacingAndGlyphs" textLength="136" x="123" y="64.6357">Results Aggregator</text>
    <rect fill="#A0A0FF" filter="url(#f16s7xfmsh0y3p)" height="46.5938" style="stroke: #A80036; stroke-width: 1.5;" width="150" x="116" y="989.4531"/>
    <text fill="#000000" font-family="sans-serif" font-size="14" lengthAdjust="spacingAndGlyphs" textLength="54" x="164" y="1009.4482">Insights</text>
    <text fill="#000000" font-family="sans-serif" font-size="14" lengthAdjust="spacingAndGlyphs" textLength="136" x="123" y="1025.7451">Results Aggregator</text>
    <rect fill="#A0A0FF" filter="url(#f16s7xfmsh0y3p)" height="46.5938" style="stroke: #A80036; stroke-width: 1.5;" width="127" x="280" y="28.3438"/>
    <text fill="#000000" font-family="sans-serif" font-size="14" lengthAdjust="spacingAndGlyphs" textLength="54" x="316.5" y="48.3389">Insights</text>
    <text fill="#000000" font-family="sans-serif" font-size="14" lengthAdjust="spacingAndGlyphs" textLength="113" x="287" y="64.6357">Content Service</text>
    <rect fill="#A0A0FF" filter="url(#f16s7xfmsh0y3p)" height="46.5938" style="stroke: #A80036; stroke-width: 1.5;" width="127" x="280" y="989.4531"/>
    <text fill="#000000" font-family="sans-serif" font-size="14" lengthAdjust="spacingAndGlyphs" textLength="54" x="316.5" y="1009.4482">Insights</text>
    <text fill="#000000" font-family="sans-serif" font-size="14" lengthAdjust="spacingAndGlyphs" textLength="113" x="287" y="1025.7451">Content Service</text>
    <rect fill="#A0A0FF" filter="url(#f16s7xfmsh0y3p)" height="46.5938" style="stroke: #A80036; stroke-width: 1.5;" width="57" x="421" y="28.3438"/>
    <text fill="#000000" font-family="sans-serif" font-size="14" lengthAdjust="spacingAndGlyphs" textLength="43" x="428" y="48.3389">Smart</text>
    <text fill="#000000" font-family="sans-serif" font-size="14" lengthAdjust="spacingAndGlyphs" textLength="39" x="430" y="64.6357">Proxy</text>
    <rect fill="#A0A0FF" filter="url(#f16s7xfmsh0y3p)" height="46.5938" style="stroke: #A80036; stroke-width: 1.5;" width="57" x="421" y="989.4531"/>
    <text fill="#000000" font-family="sans-serif" font-size="14" lengthAdjust="spacingAndGlyphs" textLength="43" x="428" y="1009.4482">Smart</text>
    <text fill="#000000" font-family="sans-serif" font-size="14" lengthAdjust="spacingAndGlyphs" textLength="39" x="430" y="1025.7451">Proxy</text>
    <rect fill="#A0FFA0" filter="url(#f16s7xfmsh0y3p)" height="46.5938" style="stroke: #A80036; stroke-width: 1.5;" width="97" x="563" y="24.3438"/>
    <rect fill="#A0FFA0" filter="url(#f16s7xfmsh0y3p)" height="46.5938" style="stroke: #A80036; stroke-width: 1.5;" width="97" x="559" y="28.3438"/>
    <text fill="#000000" font-family="sans-serif" font-size="14" lengthAdjust="spacingAndGlyphs" textLength="32" x="591.5" y="48.3389">ACM</text>
    <text fill="#000000" font-family="sans-serif" font-size="14" lengthAdjust="spacingAndGlyphs" textLength="83" x="566" y="64.6357">Hub Cluster</text>
    <rect fill="#A0FFA0" filter="url(#f16s7xfmsh0y3p)" height="46.5938" style="stroke: #A80036; stroke-width: 1.5;" width="97" x="563" y="989.4531"/>
    <rect fill="#A0FFA0" filter="url(#f16s7xfmsh0y3p)" height="46.5938" style="stroke: #A80036; stroke-width: 1.5;" width="97" x="559" y="993.4531"/>
    <text fill="#000000" font-family="sans-serif" font-size="14" lengthAdjust="spacingAndGlyphs" textLength="32" x="591.5" y="1013.4482">ACM</text>
    <text fill="#000000" font-family="sans-serif" font-size="14" lengthAdjust="spacingAndGlyphs" textLength="83" x="566" y="1029.7451">Hub Cluster</text>
    <rect fill="#EEEEEE" filter="url(#f16s7xfmsh0y3p)" height="3" style="stroke: #EEEEEE; stroke-width: 1.0;" width="666" x="3" y="110.5039"/>
    <line style="stroke: #000000; stroke-width: 1.0;" x1="3" x2="669" y1="110.5039" y2="110.5039"/>
    <line style="stroke: #000000; stroke-width: 1.0;" x1="3" x2="669" y1="113.5039" y2="113.5039"/>
    <rect fill="#EEEEEE" filter="url(#f16s7xfmsh0y3p)" height="23.1328" style="stroke: #000000; stroke-width: 2.0;" width="363" x="154.5" y="99.9375"/>
    <text fill="#000000" font-family="sans-serif" font-size="13" font-weight="bold" lengthAdjust="spacingAndGlyphs" textLength="344" x="160.5" y="116.0044">Pushing recommendations to ACM Hub Cluster</text>
    <polygon fill="#A80036" points="462.5,165.3359,452.5,169.3359,462.5,173.3359,458.5,169.3359" style="stroke: #A80036; stroke-width: 1.0;"/>
    <line style="stroke: #A80036; stroke-width: 1.0;" x1="456.5" x2="610.5" y1="169.3359" y2="169.3359"/>
    <text fill="#000000" font-family="sans-serif" font-size="13" font-weight="bold" lengthAdjust="spacingAndGlyphs" textLength="69" x="468.5" y="149.1372">I'm ready</text>
    <text fill="#000000" font-family="sans-serif" font-size="13" font-weight="bold" lengthAdjust="spacingAndGlyphs" textLength="126" x="468.5" y="164.27">to accept stream</text>
    <rect fill="#EEEEEE" filter="url(#f16s7xfmsh0y3p)" height="3" style="stroke: #EEEEEE; stroke-width: 1.0;" width="666" x="3" y="197.9023"/>
    <line style="stroke: #000000; stroke-width: 1.0;" x1="3" x2="669" y1="197.9023" y2="197.9023"/>
    <line style="stroke: #000000; stroke-width: 1.0;" x1="3" x2="669" y1="200.9023" y2="200.9023"/>
    <rect fill="#EEEEEE" filter="url(#f16s7xfmsh0y3p)" height="23.1328" style="stroke: #000000; stroke-width: 2.0;" width="208" x="232" y="187.3359"/>
    <text fill="#000000" font-family="sans-serif" font-size="13" font-weight="bold" lengthAdjust="spacingAndGlyphs" textLength="189" x="238" y="203.4028">Start streaming (pushing)</text>
    <polygon fill="#808080" points="204,237.6016,194,241.6016,204,245.6016,200,241.6016" style="stroke: #808080; stroke-width: 1.0;"/>
    <line style="stroke: #808080; stroke-width: 1.0;" x1="198" x2="450.5" y1="241.6016" y2="241.6016"/>
    <text fill="#000000" font-family="sans-serif" font-size="13" lengthAdjust="spacingAndGlyphs" textLength="195" x="210" y="236.5356">Get OCP results for cluster #1</text>
    <polygon fill="#808080" points="68,281.8672,58,285.8672,68,289.8672,64,285.8672" style="stroke: #808080; stroke-width: 1.0;"/>
    <line style="stroke: #808080; stroke-width: 1.0;" x1="62" x2="192" y1="285.8672" y2="285.8672"/>
    <text fill="#000000" font-family="sans-serif" font-size="13" lengthAdjust="spacingAndGlyphs" textLength="112" x="74" y="265.6685">Read OCP results</text>
    <text fill="#000000" font-family="sans-serif" font-size="13" lengthAdjust="spacingAndGlyphs" textLength="67" x="74" y="280.8013">cluster #1</text>
    <polygon fill="#808080" points="181,311,191,315,181,319,185,315" style="stroke: #808080; stroke-width: 1.0;"/>
    <line style="stroke: #808080; stroke-width: 1.0;" x1="57" x2="187" y1="315" y2="315"/>
    <text fill="#000000" font-family="sans-serif" font-size="13" lengthAdjust="spacingAndGlyphs" textLength="104" x="64" y="309.9341">Here are results</text>
    <polygon fill="#808080" points="439.5,340.1328,449.5,344.1328,439.5,348.1328,443.5,344.1328" style="stroke: #808080; stroke-width: 1.0;"/>
    <line style="stroke: #808080; stroke-width: 1.0;" x1="193" x2="445.5" y1="344.1328" y2="344.1328"/>
    <text fill="#000000" font-family="sans-serif" font-size="13" lengthAdjust="spacingAndGlyphs" textLength="104" x="200" y="339.0669">Here are results</text>
    <polygon fill="#808080" points="356.5,384.3984,346.5,388.3984,356.5,392.3984,352.5,388.3984" style="stroke: #808080; stroke-width: 1.0;"/>
    <line style="stroke: #808080; stroke-width: 1.0;" x1="350.5" x2="450.5" y1="388.3984" y2="388.3984"/>
    <text fill="#000000" font-family="sans-serif" font-size="13" lengthAdjust="spacingAndGlyphs" textLength="76" x="362.5" y="368.1997">Get content</text>
    <text fill="#000000" font-family="sans-serif" font-size="13" lengthAdjust="spacingAndGlyphs" textLength="70" x="362.5" y="383.3325">for rule #1</text>
    <polygon fill="#808080" points="439.5,428.6641,449.5,432.6641,439.5,436.6641,443.5,432.6641" style="stroke: #808080; stroke-width: 1.0;"/>
    <line style="stroke: #808080; stroke-width: 1.0;" x1="345.5" x2="445.5" y1="432.6641" y2="432.6641"/>
    <text fill="#000000" font-family="sans-serif" font-size="13" lengthAdjust="spacingAndGlyphs" textLength="42" x="352.5" y="412.4653">Here's</text>
    <text fill="#000000" font-family="sans-serif" font-size="13" lengthAdjust="spacingAndGlyphs" textLength="49" x="352.5" y="427.5981">content</text>
    <line style="stroke: #808080; stroke-width: 1.0;" x1="451.5" x2="493.5" y1="476.9297" y2="476.9297"/>
    <line style="stroke: #808080; stroke-width: 1.0;" x1="493.5" x2="493.5" y1="476.9297" y2="489.9297"/>
    <line style="stroke: #808080; stroke-width: 1.0;" x1="452.5" x2="493.5" y1="489.9297" y2="489.9297"/>
    <polygon fill="#808080" points="462.5,485.9297,452.5,489.9297,462.5,493.9297,458.5,489.9297" style="stroke: #808080; stroke-width: 1.0;"/>
    <text fill="#000000" font-family="sans-serif" font-size="13" lengthAdjust="spacingAndGlyphs" textLength="88" x="458.5" y="456.731">Merge results</text>
    <text fill="#000000" font-family="sans-serif" font-size="13" lengthAdjust="spacingAndGlyphs" textLength="81" x="458.5" y="471.8638">with content</text>
    <polygon fill="#A80036" points="599.5,530.1953,609.5,534.1953,599.5,538.1953,603.5,534.1953" style="stroke: #A80036; stroke-width: 1.0;"/>
    <line style="stroke: #A80036; stroke-width: 1.0;" x1="451.5" x2="605.5" y1="534.1953" y2="534.1953"/>
    <text fill="#000000" font-family="sans-serif" font-size="13" font-weight="bold" lengthAdjust="spacingAndGlyphs" textLength="136" x="458.5" y="513.9966">Recommendations</text>
    <text fill="#000000" font-family="sans-serif" font-size="13" font-weight="bold" lengthAdjust="spacingAndGlyphs" textLength="101" x="458.5" y="529.1294">for cluster #1</text>
    <polygon fill="#808080" points="204,559.3281,194,563.3281,204,567.3281,200,563.3281" style="stroke: #808080; stroke-width: 1.0;"/>
    <line style="stroke: #808080; stroke-width: 1.0;" x1="198" x2="450.5" y1="563.3281" y2="563.3281"/>
    <text fill="#000000" font-family="sans-serif" font-size="13" lengthAdjust="spacingAndGlyphs" textLength="195" x="210" y="558.2622">Get OCP results for cluster #2</text>
    <polygon fill="#808080" points="68,603.5938,58,607.5938,68,611.5938,64,607.5938" style="stroke: #808080; stroke-width: 1.0;"/>
    <line style="stroke: #808080; stroke-width: 1.0;" x1="62" x2="192" y1="607.5938" y2="607.5938"/>
    <text fill="#000000" font-family="sans-serif" font-size="13" lengthAdjust="spacingAndGlyphs" textLength="112" x="74" y="587.395">Read OCP results</text>
    <text fill="#000000" font-family="sans-serif" font-size="13" lengthAdjust="spacingAndGlyphs" textLength="67" x="74" y="602.5278">cluster #2</text>
    <polygon fill="#808080" points="181,632.7266,191,636.7266,181,640.7266,185,636.7266" style="stroke: #808080; stroke-width: 1.0;"/>
    <line style="stroke: #808080; stroke-width: 1.0;" x1="57" x2="187" y1="636.7266" y2="636.7266"/>
    <text fill="#000000" font-family="sans-serif" font-size="13" lengthAdjust="spacingAndGlyphs" textLength="104" x="64" y="631.6606">Here are results</text>
    <polygon fill="#808080" points="439.5,661.8594,449.5,665.8594,439.5,669.8594,443.5,665.8594" style="stroke: #808080; stroke-width: 1.0;"/>
    <line style="stroke: #808080; stroke-width: 1.0;" x1="193" x2="445.5" y1="665.8594" y2="665.8594"/>
    <text fill="#000000" font-family="sans-serif" font-size="13" lengthAdjust="spacingAndGlyphs" textLength="104" x="200" y="660.7935">Here are results</text>
    <polygon fill="#808080" points="356.5,706.125,346.5,710.125,356.5,714.125,352.5,710.125" style="stroke: #808080; stroke-width: 1.0;"/>
    <line style="stroke: #808080; stroke-width: 1.0;" x1="350.5" x2="450.5" y1="710.125" y2="710.125"/>
    <text fill="#000000" font-family="sans-serif" font-size="13" lengthAdjust="spacingAndGlyphs" textLength="76" x="362.5" y="689.9263">Get content</text>
    <text fill="#000000" font-family="sans-serif" font-size="13" lengthAdjust="spacingAndGlyphs" textLength="70" x="362.5" y="705.0591">for rule #2</text>
    <polygon fill="#808080" points="439.5,750.3906,449.5,754.3906,439.5,758.3906,443.5,754.3906" style="stroke: #808080; stroke-width: 1.0;"/>
    <line style="stroke: #808080; stroke-width: 1.0;" x1="345.5" x2="445.5" y1="754.3906" y2="754.3906"/>
    <text fill="#000000" font-family="sans-serif" font-size="13" lengthAdjust="spacingAndGlyphs" textLength="42" x="352.5" y="734.1919">Here's</text>
    <text fill="#000000" font-family="sans-serif" font-size="13" lengthAdjust="spacingAndGlyphs" textLength="49" x="352.5" y="749.3247">content</text>
    <line style="stroke: #808080; stroke-width: 1.0;" x1="451.5" x2="493.5" y1="798.6563" y2="798.6563"/>
    <line style="stroke: #808080; stroke-width: 1.0;" x1="493.5" x2="493.5" y1="798.6563" y2="811.6563"/>
    <line style="stroke: #808080; stroke-width: 1.0;" x1="452.5" x2="493.5" y1="811.6563" y2="811.6563"/>
    <polygon fill="#808080" points="462.5,807.6563,452.5,811.6563,462.5,815.6563,458.5,811.6563" style="stroke: #808080; stroke-width: 1.0;"/>
    <text fill="#000000" font-family="sans-serif" font-size="13" lengthAdjust="spacingAndGlyphs" textLength="88" x="458.5" y="778.4575">Merge results</text>
    <text fill="#000000" font-family="sans-serif" font-size="13" lengthAdjust="spacingAndGlyphs" textLength="81" x="458.5" y="793.5903">with content</text>
    <polygon fill="#A80036" points="599.5,851.9219,609.5,855.9219,599.5,859.9219,603.5,855.9219" style="stroke: #A80036; stroke-width: 1.0;"/>
    <line style="stroke: #A80036; stroke-width: 1.0;" x1="451.5" x2="605.5" y1="855.9219" y2="855.9219"/>
    <text fill="#000000" font-family="sans-serif" font-size="13" font-weight="bold" lengthAdjust="spacingAndGlyphs" textLength="136" x="458.5" y="835.7231">Recommendations</text>
    <text fill="#000000" font-family="sans-serif" font-size="13" font-weight="bold" lengthAdjust="spacingAndGlyphs" textLength="101" x="458.5" y="850.856">for cluster #2</text>
    <rect fill="#EEEEEE" filter="url(#f16s7xfmsh0y3p)" height="3" style="stroke: #EEEEEE; stroke-width: 1.0;" width="666" x="3" y="884.4883"/>
    <line style="stroke: #000000; stroke-width: 1.0;" x1="3" x2="669" y1="884.4883" y2="884.4883"/>
    <line style="stroke: #000000; stroke-width: 1.0;" x1="3" x2="669" y1="887.4883" y2="887.4883"/>
    <rect fill="#EEEEEE" filter="url(#f16s7xfmsh0y3p)" height="23.1328" style="stroke: #000000; stroke-width: 2.0;" width="205" x="233.5" y="873.9219"/>
    <text fill="#000000" font-family="sans-serif" font-size="13" font-weight="bold" lengthAdjust="spacingAndGlyphs" textLength="186" x="239.5" y="889.9888">Stop streaming (pushing)</text>
    <polygon fill="#A80036" points="462.5,939.3203,452.5,943.3203,462.5,947.3203,458.5,943.3203" style="stroke: #A80036; stroke-width: 1.0;"/>
    <line style="stroke: #A80036; stroke-width: 1.0;" x1="456.5" x2="610.5" y1="943.3203" y2="943.3203"/>
    <text fill="#000000" font-family="sans-serif" font-size="13" font-weight="bold" lengthAdjust="spacingAndGlyphs" textLength="33" x="468.5" y="923.1216">Stop</text>
    <text fill="#000000" font-family="sans-serif" font-size="13" font-weight="bold" lengthAdjust="spacingAndGlyphs" textLength="74" x="468.5" y="938.2544">streaming</text>
    <polygon fill="#A80036" points="599.5,968.4531,609.5,972.4531,599.5,976.4531,603.5,972.4531" style="stroke: #A80036; stroke-width: 1.0;"/>
    <line style="stroke: #A80036; stroke-width: 1.0;" x1="451.5" x2="605.5" y1="972.4531" y2="972.4531"/>
    <text fill="#000000" font-family="sans-serif" font-size="13" font-weight="bold" lengthAdjust="spacingAndGlyphs" textLength="27" x="458.5" y="967.3872">Ack</text>
    <text fill="#888888" font-family="sans-serif" font-size="10" lengthAdjust="spacingAndGlyphs" textLength="412" x="257" y="12.2822">Sequence diagram: CCX (external) data pipeline integration with ACM - push model</text>
    <text fill="#888888" font-family="sans-serif" font-size="10" lengthAdjust="spacingAndGlyphs" textLength="276" x="198" y="1065.0322">Copyright © 2020 Red Hat, Inc. Author: Pavel Tisnovsky</text>
    <!--MD5=[0b96799d74d791adedfac3656ac04d82]
@startuml

header Sequence diagram: CCX (external) data pipeline integration with ACM - push model
footer Copyright © 2020 Red Hat, Inc. Author: Pavel Tisnovsky

database "AWS RDS DB" as storage
participant "Insights\nResults Aggregator" as aggregator #a0a0ff
participant "Insights\nContent Service" as content_service #a0a0ff
participant "Smart\nProxy" as smart_proxy #a0a0ff
collections "ACM\nHub Cluster" as acm #a0ffa0

== Pushing recommendations to ACM Hub Cluster ==
acm -> smart_proxy: <b>I'm ready</b>\n<b>to accept stream</b>

== Start streaming (pushing) ==
smart_proxy -[#808080]> aggregator: Get OCP results for cluster #1
aggregator -[#808080]> storage: Read OCP results\ncluster #1
storage -[#808080]> aggregator: Here are results
aggregator -[#808080]> smart_proxy: Here are results
smart_proxy -[#808080]> content_service: Get content\nfor rule #1
content_service -[#808080]> smart_proxy: Here's\ncontent
smart_proxy -[#808080]> smart_proxy: Merge results\nwith content
smart_proxy -> acm: <b>Recommendations</b>\n<b>for cluster #1</b>

smart_proxy -[#808080]> aggregator: Get OCP results for cluster #2
aggregator -[#808080]> storage: Read OCP results\ncluster #2
storage -[#808080]> aggregator: Here are results
aggregator -[#808080]> smart_proxy: Here are results
smart_proxy -[#808080]> content_service: Get content\nfor rule #2
content_service -[#808080]> smart_proxy: Here's\ncontent
smart_proxy -[#808080]> smart_proxy: Merge results\nwith content
smart_proxy -> acm: <b>Recommendations</b>\n<b>for cluster #2</b>

== Stop streaming (pushing) ==
acm -> smart_proxy: <b>Stop</b>\n<b>streaming</b>
smart_proxy -> acm: <b>Ack</b>

@enduml

PlantUML version 1.2019.12(Sun Nov 03 11:24:54 CET 2019)
(GPL source distribution)
Java Runtime: OpenJDK Runtime Environment
JVM: OpenJDK 64-Bit Server VM
Java Version: 1.8.0_191-b12
Operating System: Linux
Default Encoding: UTF-8
Language: en
Country: US
-->
  </g>
</svg>
